<?xml version="1.0" encoding="utf-8"?>
<!-- Generator: Adobe Illustrator 21.1.0, SVG Export Plug-In . SVG Version: 6.00 Build 0)  -->
<svg version="1.1" id="Layer_1" xmlns="http://www.w3.org/2000/svg" xmlns:xlink="http://www.w3.org/1999/xlink" x="0px" y="0px"
	 viewBox="0 0 368.5 48" style="enable-background:new 0 0 368.5 48;" xml:space="preserve">
<style type="text/css">
	.st0{fill:#FFFFFF;}
</style>
<path class="st0" d="M41.4,32.6c0,1.5-0.4,3.1-1.1,4.8c-0.7,1.7-1.9,3.4-3.4,5.1c-1.6,1.7-3.6,3-6,4c-2.4,1-5.3,1.6-8.5,1.6
	c-2.4,0-4.7-0.2-6.7-0.7c-2-0.5-3.8-1.2-5.5-2.2c-1.6-1-3.1-2.3-4.5-3.9c-1.2-1.5-2.3-3.1-3.1-4.9s-1.5-3.7-1.9-5.8
	c-0.4-2-0.6-4.2-0.6-6.5c0-3.7,0.5-7.1,1.6-10c1.1-3,2.6-5.5,4.7-7.6c2-2.1,4.4-3.7,7.1-4.8C16.2,0.5,19.1,0,22.1,0
	c3.8,0,7.1,0.7,10,2.2s5.2,3.4,6.7,5.6c1.6,2.2,2.3,4.3,2.3,6.3c0,1.1-0.4,2-1.1,2.9c-0.8,0.8-1.7,1.2-2.8,1.2
	c-1.2,0-2.1-0.3-2.7-0.9c-0.6-0.6-1.3-1.6-2-2.9c-1.2-2.3-2.7-4-4.3-5.2c-1.7-1.1-3.7-1.7-6.1-1.7c-3.9,0-6.9,1.5-9.2,4.4
	c-2.3,2.9-3.4,7.1-3.4,12.5c0,3.6,0.5,6.6,1.5,9c1,2.4,2.4,4.2,4.3,5.4c1.9,1.2,4,1.8,6.5,1.8c2.7,0,5-0.7,6.9-2s3.3-3.3,4.2-5.9
	c0.4-1.2,0.9-2.2,1.5-3c0.6-0.8,1.5-1.2,2.9-1.2c1.1,0,2.1,0.4,2.9,1.2C41,30.4,41.4,31.4,41.4,32.6z"/>
<path class="st0" d="M86.5,0c4.8,0,8.9,1,12.4,2.9c3.5,2,6.1,4.7,7.8,8.3s2.7,7.8,2.7,12.7c0,3.6-0.5,6.9-1.5,9.8
	c-1,2.9-2.4,5.5-4.4,7.6c-1.9,2.2-4.3,3.8-7.2,4.9c-2.8,1.1-6.1,1.7-9.7,1.7c-3.6,0-6.9-0.6-9.8-1.8c-2.9-1.2-5.3-2.8-7.2-5
	c-1.9-2.1-3.4-4.7-4.4-7.7c-1-3-1.5-6.2-1.5-9.7c0-3.6,0.5-6.8,1.5-9.8c1-3,2.5-5.5,4.4-7.6c1.9-2.1,4.3-3.7,7.1-4.8
	C79.8,0.6,82.9,0,86.5,0z M99.9,23.9c0-3.4-0.5-6.3-1.6-8.8c-1.1-2.5-2.7-4.4-4.7-5.7c-2-1.3-4.4-1.9-7-1.9c-1.9,0-3.6,0.4-5.2,1.1
	s-3,1.7-4.1,3.1c-1.2,1.4-2.1,3.1-2.7,5.2c-0.7,2.1-1,4.5-1,7.1c0,2.6,0.3,5,1,7.2c0.7,2.1,1.6,3.9,2.8,5.3c1.2,1.4,2.6,2.5,4.2,3.2
	c1.6,0.7,3.3,1,5.2,1c2.4,0,4.6-0.6,6.6-1.8c2-1.2,3.6-3.1,4.8-5.6C99.3,30.6,99.9,27.6,99.9,23.9z"/>
<path class="st0" d="M146.3,27.4H143v14.9c0,2-0.4,3.4-1.3,4.3c-0.9,0.9-2,1.4-3.4,1.4c-1.5,0-2.7-0.5-3.5-1.5
	c-0.8-1-1.2-2.4-1.2-4.3V6.6c0-2,0.5-3.5,1.4-4.4c0.9-0.9,2.4-1.4,4.4-1.4h15.3c2.1,0,3.9,0.1,5.4,0.3c1.5,0.2,2.9,0.5,4.1,1.1
	c1.5,0.6,2.7,1.5,3.9,2.6c1.1,1.1,2,2.5,2.5,4c0.6,1.5,0.9,3.1,0.9,4.8c0,3.5-1,6.2-2.9,8.3c-2,2.1-4.9,3.5-8.9,4.4
	c1.7,0.9,3.3,2.2,4.8,3.9c1.5,1.7,2.9,3.6,4.1,5.5c1.2,2,2.1,3.7,2.8,5.3c0.7,1.6,1,2.7,1,3.2c0,0.6-0.2,1.2-0.6,1.8
	c-0.4,0.6-0.9,1.1-1.6,1.4c-0.7,0.3-1.5,0.5-2.3,0.5c-1.1,0-1.9-0.2-2.7-0.7c-0.7-0.5-1.3-1.1-1.9-1.9c-0.5-0.8-1.2-1.9-2.1-3.4
	l-3.8-6.3c-1.4-2.3-2.6-4.1-3.6-5.3c-1.1-1.2-2.1-2-3.2-2.5C149.3,27.6,148,27.4,146.3,27.4z M151.7,7.9H143v12.8h8.4
	c2.3,0,4.2-0.2,5.7-0.6c1.5-0.4,2.7-1.1,3.5-2c0.8-0.9,1.2-2.2,1.2-3.9c0-1.3-0.3-2.4-1-3.4c-0.7-1-1.6-1.7-2.7-2.2
	C157.1,8.1,154.9,7.9,151.7,7.9z"/>
<path class="st0" d="M216.9,0c4.8,0,8.9,1,12.4,2.9c3.5,2,6.1,4.7,7.8,8.3s2.7,7.8,2.7,12.7c0,3.6-0.5,6.9-1.5,9.8
	c-1,2.9-2.4,5.5-4.4,7.6c-1.9,2.2-4.3,3.8-7.2,4.9c-2.8,1.1-6.1,1.7-9.7,1.7c-3.6,0-6.9-0.6-9.8-1.8s-5.3-2.8-7.2-5
	c-1.9-2.1-3.4-4.7-4.4-7.7c-1-3-1.5-6.2-1.5-9.7c0-3.6,0.5-6.8,1.5-9.8s2.5-5.5,4.5-7.6c1.9-2.1,4.3-3.7,7.1-4.8S213.4,0,216.9,0z
	 M230.3,23.9c0-3.4-0.5-6.3-1.6-8.8c-1.1-2.5-2.7-4.4-4.7-5.7c-2-1.3-4.4-1.9-7-1.9c-1.9,0-3.6,0.4-5.2,1.1s-3,1.7-4.1,3.1
	c-1.2,1.4-2.1,3.1-2.7,5.2c-0.7,2.1-1,4.5-1,7.1c0,2.6,0.3,5,1,7.2c0.7,2.1,1.6,3.9,2.8,5.3c1.2,1.4,2.6,2.5,4.2,3.2s3.3,1,5.2,1
	c2.4,0,4.6-0.6,6.6-1.8c2-1.2,3.6-3.1,4.8-5.6C229.7,30.6,230.3,27.6,230.3,23.9z"/>
<path class="st0" d="M276.4,5.6L294.4,33V5.4c0-1.8,0.4-3.1,1.2-4c0.8-0.9,1.8-1.3,3.1-1.3c1.4,0,2.4,0.4,3.2,1.3
	c0.8,0.9,1.2,2.2,1.2,4v36.5c0,4.1-1.7,6.1-5.1,6.1c-0.8,0-1.6-0.1-2.3-0.4c-0.7-0.2-1.3-0.6-1.9-1.2c-0.6-0.5-1.1-1.1-1.6-1.9
	c-0.5-0.7-1-1.4-1.5-2.2l-17.6-27v27.2c0,1.8-0.4,3.1-1.2,4c-0.8,0.9-1.9,1.4-3.2,1.4c-1.3,0-2.4-0.5-3.2-1.4
	c-0.8-0.9-1.2-2.3-1.2-4V6.8c0-1.5,0.2-2.7,0.5-3.6c0.4-0.9,1.1-1.7,2-2.3c0.9-0.6,1.9-0.9,3-0.9c0.8,0,1.6,0.1,2.2,0.4
	s1.1,0.6,1.6,1.1c0.5,0.5,0.9,1.1,1.4,1.8C275.4,4.1,275.8,4.8,276.4,5.6z"/>
<path class="st0" d="M358.4,42l-2.2-5.8h-18.9l-2.2,6c-0.9,2.3-1.6,3.9-2.2,4.7c-0.6,0.8-1.6,1.2-3,1.2c-1.2,0-2.2-0.4-3.1-1.3
	c-0.9-0.9-1.4-1.8-1.4-2.9c0-0.6,0.1-1.3,0.3-2s0.6-1.6,1-2.8l11.9-30.1c0.3-0.9,0.7-1.9,1.2-3.1c0.5-1.2,1-2.2,1.5-3
	c0.5-0.8,1.2-1.5,2.1-1.9c0.9-0.5,2-0.7,3.2-0.7c1.3,0,2.4,0.2,3.3,0.7s1.6,1.1,2.1,1.9c0.5,0.8,1,1.6,1.4,2.5
	c0.4,0.9,0.8,2.1,1.4,3.6l12.1,30c1,2.3,1.4,3.9,1.4,5c0,1.1-0.4,2.1-1.3,3c-0.9,0.9-2,1.3-3.2,1.3c-0.7,0-1.4-0.1-1.9-0.4
	c-0.5-0.3-1-0.6-1.3-1.1c-0.4-0.5-0.7-1.2-1.2-2.1S358.7,42.7,358.4,42z M339.8,29.1h13.9l-7-19.2L339.8,29.1z"/>
</svg>
