<?xml version="1.0" encoding="utf-8"?>
<!-- Generator: Adobe Illustrator 22.1.0, SVG Export Plug-In . SVG Version: 6.00 Build 0)  -->
<svg version="1.1" id="Layer_1" xmlns="http://www.w3.org/2000/svg" xmlns:xlink="http://www.w3.org/1999/xlink" x="0px" y="0px"
	 viewBox="0 0 41.3 48.1" style="enable-background:new 0 0 41.3 48.1;" xml:space="preserve">
<style type="text/css">
	.st0{fill:#FFFFFF;}
</style>
<path class="st0" d="M41.3,32.6c0,1.5-0.4,3.1-1.1,4.8c-0.7,1.7-1.9,3.4-3.4,5.1c-1.6,1.7-3.6,3-6,4s-5.3,1.6-8.5,1.6
	c-2.4,0-4.7-0.2-6.7-0.7s-3.8-1.2-5.5-2.2c-1.6-1-3.1-2.3-4.5-3.9c-1.2-1.5-2.3-3.1-3.1-4.9S1,32.7,0.6,30.6c-0.4-2-0.6-4.2-0.6-6.5
	c0-3.7,0.5-7.1,1.6-10c1.1-3,2.6-5.5,4.7-7.6c2-2.1,4.4-3.7,7.1-4.8C16.1,0.5,19,0,22,0c3.8,0,7.1,0.7,10,2.2s5.2,3.4,6.7,5.6
	c1.6,2.2,2.3,4.3,2.3,6.3c0,1.1-0.4,2-1.1,2.9c-0.8,0.8-1.7,1.2-2.8,1.2c-1.2,0-2.1-0.3-2.7-0.9c-0.6-0.6-1.3-1.6-2-2.9
	c-1.2-2.3-2.7-4-4.3-5.2c-1.7-1.1-3.7-1.7-6.1-1.7c-3.9,0-6.9,1.5-9.2,4.4S9.4,19,9.4,24.4c0,3.6,0.5,6.6,1.5,9s2.4,4.2,4.3,5.4
	c1.9,1.2,4,1.8,6.5,1.8c2.7,0,5-0.7,6.9-2s3.3-3.3,4.2-5.9c0.4-1.2,0.9-2.2,1.5-3s1.5-1.2,2.9-1.2c1.1,0,2.1,0.4,2.9,1.2
	C40.9,30.4,41.3,31.4,41.3,32.6z"/>
</svg>
